<svg id="Layer_1" enable-background="new 0 0 256 256" height="512" viewBox="0 0 256 256" width="512" xmlns="http://www.w3.org/2000/svg"><path d="m144.867 67.741c-1.88 0-3.759-.378-5.542-1.135-3.488-1.481-6.191-4.231-7.61-7.745l-1.741-4.308c-2.93-7.253.586-15.538 7.839-18.468 3.513-1.42 7.37-1.386 10.858.094 3.488 1.481 6.191 4.231 7.61 7.745l1.741 4.308c2.93 7.252-.586 15.537-7.839 18.468-1.718.694-3.518 1.041-5.316 1.041zm4.005-4.286h.01zm-5.754-21.404c-.895 0-1.804.168-2.683.523-3.674 1.485-5.456 5.682-3.971 9.356l1.741 4.308c.719 1.78 2.088 3.173 3.855 3.923s3.721.768 5.5.048c3.674-1.485 5.456-5.682 3.972-9.356l-1.741-4.308c-1.129-2.794-3.829-4.494-6.673-4.494z" fill="#e0ebfc"/><path d="m80.276 51.746c-4.476 0-8.884-2.108-11.641-6.044-4.486-6.408-2.923-15.271 3.484-19.758l3.807-2.666c6.408-4.486 15.272-2.924 19.758 3.484 2.173 3.104 3.008 6.869 2.35 10.601s-2.729 6.984-5.834 9.158l-3.806 2.665c-2.472 1.729-5.309 2.56-8.118 2.56zm-5.908-10.06c2.274 3.246 6.763 4.039 10.01 1.765l3.807-2.665c1.572-1.101 2.622-2.749 2.955-4.639.333-1.891-.089-3.798-1.191-5.37-1.101-1.573-2.749-2.623-4.639-2.956-1.893-.333-3.798.09-5.371 1.191l-3.806 2.665c-3.245 2.272-4.037 6.763-1.765 10.009z" fill="#e0ebfc"/><path d="m119.409 40.563c-1.071 0-2.149-.122-3.219-.369l-4.527-1.045c-7.623-1.759-12.392-9.392-10.632-17.014 1.76-7.623 9.393-12.393 17.015-10.632l4.528 1.045c7.622 1.759 12.391 9.392 10.631 17.014-.852 3.692-3.091 6.832-6.305 8.84-2.284 1.427-4.865 2.161-7.491 2.161zm-4.556-22.425c-3.271 0-6.236 2.251-7.002 5.571-.432 1.871-.109 3.797.908 5.425s2.608 2.762 4.478 3.194l4.527 1.045c1.871.432 3.797.11 5.425-.908 1.628-1.017 2.762-2.607 3.194-4.478.891-3.861-1.525-7.728-5.386-8.62l-4.528-1.045c-.54-.124-1.082-.184-1.616-.184z" fill="#e0ebfc"/><path d="m144.867 69.741c-2.173 0-4.301-.436-6.324-1.294-3.98-1.689-7.063-4.828-8.683-8.837l-1.741-4.308c-3.343-8.275.669-17.728 8.945-21.071 4.008-1.62 8.407-1.581 12.388.107 3.98 1.69 7.064 4.829 8.684 8.837l1.741 4.308c3.343 8.274-.669 17.727-8.944 21.072-1.95.787-3.991 1.186-6.066 1.186zm-1.738-32.696c-1.545 0-3.091.298-4.566.895-3.013 1.217-5.373 3.54-6.647 6.54-1.273 3-1.305 6.312-.087 9.324l1.741 4.308c1.219 3.018 3.541 5.381 6.538 6.653 2.55 1.082 5.363 1.266 7.997.534-.72-.303-1.227-1.015-1.227-1.843 0-.367.099-.711.271-1.007-1.943.503-3.987.353-5.869-.445-2.258-.958-4.008-2.739-4.928-5.015l-1.741-4.309c-1.897-4.696.38-10.061 5.076-11.959 1.1-.444 2.255-.669 3.433-.669 3.77 0 7.117 2.255 8.527 5.746l1.741 4.309c1.741 4.31-.034 9.184-3.968 11.423.844.235 1.463 1.009 1.463 1.927 0 .277-.056.541-.158.78 5.345-2.923 7.781-9.471 5.444-15.254l-1.741-4.308c-1.219-3.018-3.541-5.381-6.538-6.653-1.532-.651-3.146-.977-4.761-.977zm-.011 7.006c-.662 0-1.313.127-1.935.378-2.651 1.071-3.937 4.101-2.865 6.752l1.741 4.308c.519 1.285 1.507 2.29 2.782 2.832 1.275.541 2.685.553 3.969.035 2.652-1.072 3.938-4.101 2.867-6.753l-1.741-4.308c-.796-1.97-2.687-3.244-4.818-3.244z" fill="#3762cc"/><path d="m80.276 53.746c-5.291 0-10.255-2.579-13.279-6.897-5.119-7.312-3.336-17.425 3.974-22.544l3.807-2.666c3.537-2.477 7.832-3.426 12.094-2.675s7.973 3.113 10.45 6.65c2.479 3.542 3.432 7.837 2.681 12.095-.75 4.258-3.114 7.969-6.657 10.449l-3.806 2.665c-2.73 1.912-5.934 2.923-9.264 2.923zm3.752-31.032c-2.478 0-4.889.754-6.956 2.201l-3.807 2.666c-5.504 3.855-6.846 11.469-2.993 16.973 2.277 3.251 6.017 5.192 10.003 5.192 2.505 0 4.915-.761 6.97-2.199l3.806-2.665c2.667-1.868 4.446-4.661 5.011-7.867s-.151-6.439-2.019-9.106c-1.863-2.662-4.658-4.439-7.868-5.005-.715-.128-1.434-.19-2.147-.19zm-3.758 24.033c-2.899 0-5.753-1.365-7.54-3.914-2.904-4.15-1.892-9.889 2.256-12.794l3.807-2.665c2.01-1.407 4.444-1.949 6.864-1.522 2.417.426 4.523 1.769 5.931 3.779 1.408 2.009 1.949 4.447 1.522 6.865-.426 2.416-1.768 4.522-3.777 5.929l-3.807 2.665c-1.601 1.119-3.438 1.657-5.256 1.657zm-4.263-6.208c1.641 2.342 4.882 2.914 7.224 1.273l3.807-2.665c1.134-.794 1.892-1.983 2.132-3.348.241-1.364-.064-2.74-.859-3.875-.795-1.136-1.984-1.893-3.348-2.134-1.365-.239-2.741.065-3.876.86l-3.806 2.665c-2.343 1.64-2.914 4.881-1.274 7.224z" fill="#3762cc"/><path d="m119.409 42.563c-1.227 0-2.461-.142-3.669-.42l-4.526-1.045c-4.207-.971-7.787-3.527-10.081-7.197-2.293-3.67-3.021-8.009-2.05-12.215.971-4.208 3.527-7.788 7.198-10.081 3.67-2.294 8.008-3.022 12.215-2.05l4.527 1.045c4.207.971 7.787 3.527 10.08 7.197s3.021 8.009 2.05 12.215c-.972 4.213-3.527 7.795-7.194 10.087-2.581 1.612-5.537 2.464-8.55 2.464zm-4.569-29.427c-2.256 0-4.475.632-6.441 1.86-2.765 1.728-4.689 4.422-5.42 7.588s-.182 6.432 1.545 9.196c1.728 2.764 4.422 4.688 7.588 5.419l4.527 1.045c3.151.728 6.462.172 9.2-1.539 2.761-1.725 4.684-4.422 5.416-7.594.731-3.166.182-6.432-1.545-9.196-1.728-2.764-4.422-4.688-7.587-5.419l-4.528-1.045c-.914-.211-1.838-.315-2.755-.315zm4.559 22.425c-.693 0-1.392-.079-2.084-.239l-4.527-1.045c-2.392-.553-4.425-2.003-5.725-4.083s-1.712-4.543-1.161-6.935c.968-4.193 4.649-7.122 8.951-7.122.692 0 1.388.08 2.067.236l4.528 1.045c4.936 1.14 8.024 6.083 6.885 11.018-.552 2.392-2.002 4.424-4.083 5.725-1.479.924-3.149 1.4-4.851 1.4zm-4.546-15.423c-2.39 0-4.516 1.691-5.054 4.021-.312 1.35-.079 2.74.655 3.915s1.882 1.994 3.232 2.306l4.527 1.045c1.351.312 2.741.079 3.916-.655s1.994-1.882 2.306-3.232c.643-2.787-1.101-5.577-3.887-6.221l-4.527-1.045c-.385-.089-.778-.134-1.168-.134z" fill="#3762cc"/><path d="m70.508 88.383c-7.823 0-14.187-6.364-14.187-14.187v-4.646c0-7.823 6.364-14.187 14.187-14.187 7.822 0 14.187 6.364 14.187 14.187v4.646c-.001 7.823-6.365 14.187-14.187 14.187zm0-26.02c-3.963 0-7.187 3.224-7.187 7.187v4.646c0 3.963 3.224 7.187 7.187 7.187s7.187-3.224 7.187-7.187v-4.646c-.001-3.963-3.224-7.187-7.187-7.187z" fill="#e0ebfc"/><path d="m70.508 90.383c-8.926 0-16.187-7.261-16.187-16.187v-4.646c0-8.926 7.261-16.187 16.187-16.187 8.925 0 16.187 7.261 16.187 16.187v4.646c-.001 8.926-7.262 16.187-16.187 16.187zm0-33.021c-6.72 0-12.187 5.467-12.187 12.187v4.646c0 6.72 5.467 12.187 12.187 12.187s12.187-5.467 12.187-12.187v-4.646c-.001-6.719-5.467-12.187-12.187-12.187zm0 26.021c-5.066 0-9.187-4.121-9.187-9.187v-4.646c0-5.066 4.121-9.187 9.187-9.187 5.065 0 9.187 4.121 9.187 9.187v4.646c-.001 5.066-4.122 9.187-9.187 9.187zm0-19.021c-2.86 0-5.187 2.327-5.187 5.187v4.646c0 2.86 2.327 5.187 5.187 5.187s5.187-2.327 5.187-5.187v-4.646c-.001-2.86-2.327-5.187-5.187-5.187z" fill="#3762cc"/><path d="m241.42 126.342c-9.615-21.771-30.82-35.312-53.418-36.322l-6.977-17.268c-1.346-3.331-5.137-4.94-8.468-3.595l-36.763 14.853c-3.331 1.346-4.94 5.137-3.595 8.468l7.357 18.208c-15.193 17.289-20.033 42.517-10.024 65.18 12.948 29.317 46.91 43.733 76.993 32.681 33.219-12.202 49.192-49.832 34.895-82.205zm-36.183 60.386c-.025.014-.05.028-.074.042-2.852 1.634-5.886 2.859-9.073 3.666-.027.007-.055.014-.082.021-20.402 5.476-42.279-5.704-49.21-26.57-6.371-19.18 2.57-40.478 20.729-49.351 21.424-10.469 46.939-.419 55.718 21.309 7.782 19.264-.274 41.062-18.008 50.883z" fill="#e0ebfc"/><path d="m164.24 85.139c-1.36-3.366-5.371-4.865-8.654-3.063-2.342 1.286-3.602 4.053-3.015 6.66.585 2.599 2.631 4.334 4.968 4.732l3.37 8.341 5.947-2.403-3.37-8.341c1.217-1.655 1.58-3.88.754-5.926z" fill="#4671c6"/><path d="m185.556 214.288c-24.354.001-47.503-14.178-57.853-37.613-9.748-22.071-5.984-47.98 9.543-66.369l-6.9-17.078c-1.756-4.348.352-9.315 4.7-11.072l36.763-14.853c2.106-.851 4.418-.831 6.509.057s3.711 2.536 4.563 4.643l6.5 16.09c23.401 1.53 44.449 16.113 53.869 37.441 7.14 16.167 7.276 34.016.383 50.256-6.894 16.241-19.827 28.542-36.417 34.636-7.124 2.617-14.447 3.862-21.66 3.862zm-10.561-143.606c-.571 0-1.143.11-1.688.331l-36.763 14.853c-2.303.93-3.42 3.562-2.489 5.865l7.356 18.208c.283.701.147 1.501-.352 2.069-15.179 17.272-18.985 42.022-9.697 63.051 12.565 28.452 45.278 42.338 74.474 31.612 15.542-5.709 27.657-17.232 34.114-32.444s6.33-31.931-.36-47.077c-8.983-20.341-29.268-34.131-51.677-35.132-.782-.035-1.472-.523-1.765-1.249l-6.977-17.268c-.451-1.116-1.309-1.989-2.417-2.459-.566-.24-1.162-.36-1.759-.36zm10.507 123.158c-18.011 0-34.672-11.471-40.602-29.323-6.705-20.184 2.645-42.443 21.749-51.778 10.797-5.275 22.911-5.817 34.108-1.523 11.05 4.237 19.922 12.941 24.342 23.88 8.077 19.992-.042 42.937-18.886 53.376-.011.006-.024.014-.027.015-3.031 1.736-6.252 3.038-9.605 3.886-3.697.993-7.416 1.467-11.079 1.467zm-.077-81.489c-5.81 0-11.598 1.333-17.021 3.982-17.312 8.459-25.785 28.632-19.708 46.923 6.469 19.476 27.026 30.576 46.793 25.269.011-.003.105-.027.116-.03 2.995-.758 5.878-1.922 8.563-3.46.008-.005.091-.052.1-.056 17.083-9.46 24.444-30.26 17.122-48.383-4.005-9.914-12.048-17.803-22.065-21.644-4.528-1.737-9.221-2.601-13.9-2.601z" fill="#3762cc"/><path d="m131.654 181.682c-.746-23.358-14.828-43.544-34.816-53.166v-20.542c0-3.593-2.912-6.505-6.505-6.505h-39.65c-3.593 0-6.505 2.912-6.505 6.505v20.486c-21.169 10.111-35.621 32.023-34.816 57.227 1.023 32.032 27.112 58.121 59.144 59.144 35.371 1.129 64.277-27.778 63.148-63.149zm-56.169 42.434c-.028.003-.056.007-.084.011-3.257.446-6.529.446-9.785 0-.028-.004-.056-.008-.084-.011-20.968-2.566-37.063-21.127-35.673-43.07 1.278-20.17 17.546-36.567 37.706-37.992 23.786-1.681 43.678 17.195 43.678 40.63-.001 20.776-15.636 37.97-35.758 40.432z" fill="#e0ebfc"/><path d="m206.247 210.65c-.817 0-1.584-.504-1.879-1.316l-6.979-19.176c-.378-1.038.157-2.186 1.195-2.563 1.037-.376 2.186.158 2.563 1.195l6.979 19.176c.378 1.038-.157 2.186-1.195 2.563-.225.082-.457.121-.684.121z" fill="#3762cc"/><path d="m70.508 246.863c-1.104 0-2-.896-2-2v-20.401c0-1.104.896-2 2-2s2 .896 2 2v20.401c0 1.104-.896 2-2 2z" fill="#3762cc"/><path d="m76.634 113.171c0-3.63-3.158-6.523-6.876-6.081-2.653.315-4.858 2.409-5.29 5.046-.432 2.628.816 5.004 2.834 6.248v8.996h6.414v-8.996c1.748-1.08 2.918-3.007 2.918-5.213z" fill="#4671c6"/><path d="m70.542 246.863c-.698 0-1.398-.011-2.1-.034-33.19-1.06-60.02-27.889-61.079-61.079-.787-24.662 12.839-47.499 34.815-58.539v-19.239c0-4.689 3.815-8.505 8.505-8.505h39.65c4.689 0 8.505 3.815 8.505 8.505v19.299c20.772 10.5 34.077 31.209 34.815 54.345.564 17.666-5.996 34.265-18.471 46.74-11.98 11.982-27.763 18.507-44.64 18.507zm-19.859-143.394c-2.484 0-4.505 2.021-4.505 4.505v20.486c0 .771-.443 1.473-1.138 1.805-21.209 10.131-34.43 31.86-33.679 55.359.992 31.087 26.122 56.216 57.209 57.208 16.54.53 32.098-5.616 43.784-17.302s17.83-27.235 17.302-43.784c-.704-22.059-13.611-41.765-33.685-51.428-.692-.333-1.132-1.034-1.132-1.802v-20.542c0-2.484-2.021-4.505-4.505-4.505zm19.823 122.991c-1.726 0-3.45-.117-5.162-.352-22.474-2.75-38.914-22.596-37.482-45.188 1.345-21.226 18.353-38.362 39.561-39.861 11.987-.846 23.421 3.189 32.195 11.365 8.658 8.068 13.624 19.462 13.624 31.26 0 21.564-16.127 39.8-37.514 42.417-.001 0-.002 0-.003 0l-.24-1.985.193 1.992c-1.717.235-3.445.352-5.172.352zm4.979-2.344h.01zm-4.946-79.167c-.94 0-1.885.033-2.834.101-19.22 1.358-34.632 16.888-35.851 36.124-1.298 20.481 13.602 38.472 33.92 40.958.012.001.107.014.119.016 3.06.418 6.169.418 9.236-.001.011-.001.106-.014.116-.015 19.381-2.374 33.997-18.901 33.997-38.446 0-10.692-4.501-21.02-12.351-28.334-7.259-6.765-16.527-10.403-26.352-10.403z" fill="#3762cc"/><path d="m70.508 101.469c-2.566 0-4.646-2.08-4.646-4.646v-16.728c0-2.566 2.08-4.646 4.646-4.646 2.566 0 4.646 2.08 4.646 4.646v16.727c0 2.567-2.08 4.647-4.646 4.647z" fill="#a4c9ff"/><path d="m154.176 76.585c-2.379.961-5.087-.188-6.049-2.568l-6.266-15.509c-.961-2.379.188-5.087 2.568-6.049 2.379-.961 5.087.188 6.049 2.568l6.266 15.509c.961 2.379-.189 5.087-2.568 6.049z" fill="#a4c9ff"/><path d="m69.14 65.026c2.479.664 5.027-.807 5.691-3.286l4.329-16.157c.664-2.479-.807-5.027-3.286-5.691-2.479-.664-5.027.807-5.691 3.286l-4.329 16.157c-.663 2.479.808 5.026 3.286 5.691z" fill="#a4c9ff"/><path d="m141.829 46.92c-2.049 1.544-4.963 1.135-6.507-.915l-10.067-13.359c-1.544-2.049-1.135-4.963.915-6.507 2.049-1.544 4.963-1.135 6.507.915l10.067 13.359c1.544 2.05 1.134 4.963-.915 6.507z" fill="#a4c9ff"/><path d="m86.69 31.772c-.664-2.479.807-5.027 3.286-5.691l16.157-4.329c2.479-.664 5.027.807 5.691 3.286.664 2.479-.807 5.027-3.286 5.691l-16.157 4.329c-2.479.663-5.027-.808-5.691-3.286z" fill="#a4c9ff"/><g fill="#3762cc"><path d="m70.508 103.469c-3.665 0-6.646-2.981-6.646-6.646v-16.728c0-3.665 2.981-6.646 6.646-6.646s6.646 2.981 6.646 6.646v16.727c0 3.665-2.981 6.647-6.646 6.647zm0-26.02c-1.459 0-2.646 1.187-2.646 2.646v16.727c0 1.459 1.187 2.646 2.646 2.646s2.646-1.187 2.646-2.646v-16.727c0-1.459-1.187-2.646-2.646-2.646z"/><path d="m152.444 78.923c-2.63 0-5.126-1.572-6.171-4.156l-6.266-15.51c-.665-1.646-.649-3.452.044-5.086s1.982-2.901 3.628-3.566c3.398-1.374 7.279.275 8.653 3.672l6.266 15.51c1.373 3.398-.274 7.279-3.672 8.652-.814.329-1.655.484-2.482.484zm-6.278-24.802c-.33 0-.664.062-.988.193-1.353.546-2.009 2.092-1.462 3.445l6.266 15.51c.546 1.353 2.091 2.007 3.445 1.462 1.353-.546 2.009-2.092 1.462-3.445l-6.266-15.51c-.416-1.029-1.41-1.655-2.457-1.655z"/><path d="m70.341 67.185c-.568 0-1.145-.074-1.719-.227-1.715-.459-3.148-1.559-4.036-3.096-.888-1.538-1.124-3.329-.664-5.044l4.329-16.157c.459-1.715 1.559-3.148 3.097-4.036s3.328-1.124 5.044-.664c1.714.459 3.147 1.559 4.035 3.096.888 1.538 1.124 3.329.664 5.043l-4.33 16.157c-.793 2.966-3.486 4.928-6.42 4.928zm-.683-4.091c.683.183 1.396.089 2.008-.265s1.05-.924 1.233-1.607l4.33-16.157c.183-.683.089-1.396-.265-2.008s-.924-1.05-1.607-1.233-1.397-.089-2.008.264c-.612.354-1.05.924-1.233 1.607l-4.329 16.158c-.183.683-.089 1.396.264 2.008s.924 1.05 1.607 1.233z"/><path d="m139.041 49.854c-2.017 0-4.011-.913-5.316-2.644l-10.067-13.359c-2.206-2.927-1.619-7.103 1.308-9.308 2.928-2.206 7.102-1.619 9.308 1.308l10.066 13.359c1.068 1.417 1.521 3.167 1.274 4.925s-1.164 3.315-2.582 4.383c-1.195.9-2.599 1.336-3.991 1.336zm-10.079-22.649c-.555 0-1.113.173-1.589.532-1.166.878-1.399 2.541-.521 3.707l10.067 13.359c.426.564 1.045.93 1.745 1.028.698.099 1.396-.081 1.961-.507.565-.426.93-1.045 1.028-1.746.098-.7-.082-1.396-.507-1.961l-10.066-13.359c-.52-.69-1.314-1.053-2.118-1.053z"/><path d="m91.18 37.216c-2.935 0-5.627-1.961-6.422-4.927-.459-1.715-.224-3.506.664-5.043s2.321-2.637 4.036-3.096l16.157-4.33c3.541-.951 7.192 1.16 8.14 4.7.949 3.54-1.16 7.191-4.699 8.14l-16.158 4.329c-.573.154-1.15.227-1.718.227zm16.154-13.623c-.226 0-.456.029-.684.091l-16.157 4.329c-.683.183-1.253.621-1.607 1.233s-.447 1.325-.265 2.008c.183.683.621 1.253 1.233 1.607.612.353 1.326.45 2.008.264l16.157-4.329c1.409-.378 2.249-1.832 1.872-3.242-.315-1.18-1.388-1.961-2.557-1.961z"/><path d="m160.909 103.81c-.791 0-1.54-.473-1.855-1.251l-2.988-7.396c-2.721-.875-4.803-3.125-5.447-5.986-.784-3.486.862-7.126 4.003-8.852 2.048-1.125 4.477-1.324 6.663-.544 2.187.779 3.939 2.46 4.809 4.611.915 2.264.765 4.758-.372 6.872l2.988 7.395c.199.492.194 1.042-.014 1.531-.207.488-.6.874-1.092 1.073l-5.947 2.402c-.244.098-.498.145-.748.145zm-2.351-20.505c-.689 0-1.375.176-2.009.524-1.563.859-2.416 2.738-2.026 4.468.379 1.686 1.664 2.911 3.353 3.199.684.117 1.259.579 1.519 1.223l2.621 6.486 2.238-.904-2.621-6.486c-.26-.643-.167-1.375.243-1.934.858-1.167 1.049-2.659.511-3.992-.441-1.092-1.332-1.946-2.442-2.342-.456-.162-.923-.242-1.387-.242z"/><path d="m73.714 129.379h-6.414c-1.104 0-2-.896-2-2v-7.978c-2.195-1.831-3.283-4.696-2.808-7.591.58-3.527 3.47-6.285 7.028-6.707 2.319-.275 4.646.45 6.381 1.99 1.736 1.542 2.731 3.756 2.731 6.077 0 2.443-1.073 4.699-2.919 6.233v7.976c.001 1.104-.894 2-1.999 2zm-4.413-4h2.414v-6.996c0-.694.36-1.338.95-1.703 1.233-.76 1.969-2.072 1.969-3.51 0-1.178-.506-2.303-1.388-3.086-.893-.794-2.043-1.15-3.253-1.009-1.771.21-3.265 1.633-3.553 3.384-.28 1.705.452 3.322 1.91 4.221.59.364.95 1.009.95 1.703v6.996z"/></g></svg>
